:FULLY-SPECIFIED
:FORCE-ALL-JOINTS-BE-3DOF
:DEGREES
544
root 5.81343 16.4234 -4.61778 -111.906 87.9469 -117.512
lfemur -21.6666 -5.50214 -21.2134
ltibia 46.4805 -0 0
lfoot -28.2137 1.62578 -0.286071
ltoes 8.01234 -0 0
rfemur -52.3121 -1.11657 12.0033
rtibia 62.4793 -0 0
rfoot 7.86583 9.83124 0.00121883
rtoes -19.0021 0 0
lowerback 5.71038 -0.703956 -3.31585
upperback 1.22815 -1.06024 1.84648
thorax -1.808 -0.506748 3.82991
lowerneck -7.44595 -11.6019 -3.01256
upperneck 11.1622 -15.7241 4.08377
head 5.16454 -7.57095 0.628578
lclavicle -8.6233e-16 -3.2871e-15 6.34495e-32
lhumerus -36.7992 -32.3669 101.699
lradius 54.9838 -0 0
lwrist 13.8487 0 0
lhand -4.24112 -0.763632 0.189973
lfingers 7.12502 -0 0
lthumb 21.4708 27.4603 0.00551086
rclavicle -8.6233e-16 -3.2871e-15 6.34495e-32
rhumerus -4.13325 33.7451 -77.9691
rradius 114.574 -0 0
rwrist -10.1716 0 0
rhand -10.0428 -16.1283 0.422333
rfingers 7.12502 -0 0
rthumb 15.9019 -44.8758 0.551429
545
root 5.82446 16.4223 -4.58624 -111.016 87.9365 -116.616
lfemur -21.5592 -5.10059 -21.1694
ltibia 46.4415 -0 0
lfoot -28.3039 1.90818 -0.287175
ltoes 7.80939 -0 0
rfemur -52.115 -1.37335 12.1147
rtibia 62.2748 -0 0
rfoot 7.86295 9.80535 0.00123477
rtoes -19.0852 0 0
lowerback 5.67797 -0.717147 -3.37671
upperback 1.2476 -1.08013 1.8529
thorax -1.76653 -0.517623 3.87144
lowerneck -7.39459 -11.6394 -3.03208
upperneck 11.2018 -15.7827 4.1481
head 5.17754 -7.59596 0.646965
lclavicle -8.73198e-16 -3.1115e-15 6.43358e-32
lhumerus -36.4566 -32.2753 101.249
lradius 54.9411 -0 0
lwrist 14.1271 0 0
lhand -4.62829 -0.80739 0.19071
lfingers 7.12502 -0 0
lthumb 21.0992 27.4589 0.00552997
rclavicle -8.73198e-16 -3.1115e-15 6.43358e-32
rhumerus -3.30892 33.3406 -77.7061
rradius 115.061 -0 0
rwrist -11.0587 0 0
rhand -10.4646 -16.2174 0.424066
rfingers 7.12502 -0 0
rthumb 15.4958 -44.9966 0.553687
546
root 5.83549 16.4213 -4.55466 -110.13 87.9256 -115.723
lfemur -21.4514 -4.69856 -21.1246
ltibia 46.4025 -0 0
lfoot -28.3942 2.19093 -0.287835
ltoes 7.60624 -0 0
rfemur -51.918 -1.63081 12.2255
rtibia 62.07 -0 0
rfoot 7.86001 9.77951 0.0012494
rtoes -19.1684 0 0
lowerback 5.64549 -0.730395 -3.43766
upperback 1.26705 -1.10006 1.8593
thorax -1.725 -0.528546 3.913
lowerneck -7.34316 -11.6768 -3.05164
upperneck 11.2414 -15.8414 4.21249
head 5.19055 -7.62098 0.66537
lclavicle -8.84948e-16 -2.93513e-15 6.52007e-32
lhumerus -36.1147 -32.1814 100.799
lradius 54.8984 -0 0
lwrist 14.4059 0 0
lhand -5.0159 -0.851201 0.191152
lfingers 7.12502 -0 0
lthumb 20.7271 27.4576 0.00554096
rclavicle -8.84948e-16 -2.93513e-15 6.52007e-32
rhumerus -2.48983 32.9323 -77.4511
rradius 115.549 -0 0
rwrist -11.9466 0 0
rhand -10.887 -16.3067 0.425139
rfingers 7.12502 -0 0
rthumb 15.0891 -45.1176 0.555083
547
root 5.84653 16.4202 -4.52307 -109.248 87.9144 -114.835
lfemur -21.3434 -4.2963 -21.0791
ltibia 46.3633 -0 0
lfoot -28.4845 2.47386 -0.288051
ltoes 7.40302 -0 0
rfemur -51.7214 -1.88879 12.3354
rtibia 61.8651 -0 0
rfoot 7.85701 9.75373 0.00126267
rtoes -19.2517 0 0
lowerback 5.61298 -0.743693 -3.49865
upperback 1.2865 -1.12 1.86569
thorax -1.68345 -0.539511 3.95458
lowerneck -7.29167 -11.7142 -3.07124
upperneck 11.281 -15.9002 4.2769
head 5.20356 -7.64601 0.683782
lclavicle -8.97639e-16 -2.75814e-15 6.6041e-32
lhumerus -35.7739 -32.0852 100.35
lradius 54.8556 -0 0
lwrist 14.6848 0 0
lhand -5.40372 -0.895038 0.191298
lfingers 7.12502 -0 0
lthumb 20.3549 27.4562 0.00554382
rclavicle -8.97639e-16 -2.75814e-15 6.6041e-32
rhumerus -1.67634 32.5207 -77.2043
rradius 116.036 -0 0
rwrist -12.835 0 0
rhand -11.3098 -16.3961 0.425548
rfingers 7.12502 -0 0
rthumb 14.682 -45.2388 0.555613
